# xmcd
#
# Track frame offsets: 
#        150
#        17982
#        35812
#
# Disc length: 713 seconds
#
# Revision: 0
# Processed by: cddbd v1.5.2PL0 Copyright (c) Steve Scherf et al.
# Submitted via: ExactAudioCopy v0.99pb3
#
DISCID=2202c703
DTITLE=Pharrell - Number One [CD Single)
DYEAR=2006
DGENRE=Hip-Hop
TTITLE0=Number One feat. Kanye West (Clean)
TTITLE1=Number One feat. Kanye West (Dirty)
TTITLE2=Number One feat. Kanye West (Instrumental)
EXTD=
EXTT0=
EXTT1=
EXTT2=
PLAYORDER=
